# xmcd
#
# Track frame offsets: 
#        150
#        11650
#        22741
#        35234
#        45554
#        59088
#        72333
#        84527
#        97295
#        110918
#        122496
#        134976
#        145835
#        159085
#        170062
#        183117
#        195072
#        209621
#        221344
#        231522
#        245359
#        257949
#        271841
#        285394
#        299394
#        310013
#
# Disc length: 4296 seconds
#
# Revision: 3
# Processed by: cddbd v1.5.2PL0 Copyright (c) Steve Scherf et al.
# Submitted via: ExactAudioCopy v1.1
#
DISCID=8a10c61a
DTITLE=Various Artist - The Complete Motown Singles Volume 6 [CD30
DTITLE=)
DYEAR=2006
DGENRE=R&B
TTITLE0=The Temptations - Ain't Too Proud To Beg (mono)
TTITLE1=The Temptations - You'll Lose A Precious Love (mono)
TTITLE2=Four Tops - Loving You Is Sweeter Than Ever (mono)
TTITLE3=Four Tops - I Like Everything About You (mono)
TTITLE4=Martha and The Vandellas - What Am I Going To Do Without Your Lo
TTITLE4=ve (mono)
TTITLE5=Martha and The Vandellas - Go Ahead And Laugh (mono)
TTITLE6=The Miracles - Whole Lot Of Shakin' In My Heart (Since I Met Y
TTITLE6=ou) (mono)
TTITLE7=The Miracles - Oh Be My Love (mono)
TTITLE8=Jimmy Ruffin - What Becomes Of The Brokenhearted (mono)
TTITLE9=Jimmy Ruffin - Baby I've Got It (mono)
TTITLE10=Rick, Robin and Him - Three Choruses Of Despair (mono)
TTITLE11=Rick, Robin and Him - Copper Kettle (mono)
TTITLE12=Rick, Robin and Him - Cause You Know Me (mono)
TTITLE13=Gladys Knight and The Pips - Just Walk In My Shoes (mono)
TTITLE14=Gladys Knight and The Pips - Stepping Closer To Your Heart (mon
TTITLE14=o)
TTITLE15=The Isley Brothers - I Guess I'll Always Love You (mono)
TTITLE16=The Isley Brothers - I Hear A Symphony (mono)
TTITLE17=The LaSalles - La La La La La (mono)
TTITLE18=The LaSalles - This Is True (mono)
TTITLE19=Stevie Wonder - Blowin' In The Wind (1st pressing mix) (mono)
TTITLE20=Stevie Wonder - Ain't That Asking For Trouble (mono)
TTITLE21=Stevie Wonder - Blowin' In The Wind (2nd pressing mix) (mono)
TTITLE22=Jr. Walker and The All Stars - How Sweet It Is (To Be Loved By 
TTITLE22=You) (mono)
TTITLE23=Jr. Walker and The All Stars - Nothing But Soul (mono)
TTITLE24=Chris Clark - Love's Gone Bad (mono)
TTITLE25=Chris Clark - Put Yourself In My Place (mono)
EXTD=YEAR: 2006
EXTT0=
EXTT1=
EXTT2=
EXTT3=
EXTT4=
EXTT5=
EXTT6=
EXTT7=
EXTT8=
EXTT9=
EXTT10=
EXTT11=
EXTT12=
EXTT13=
EXTT14=
EXTT15=
EXTT16=
EXTT17=
EXTT18=
EXTT19=
EXTT20=
EXTT21=
EXTT22=
EXTT23=
EXTT24=
EXTT25=
PLAYORDER=
